<?xml version="1.0" encoding="UTF-8" standalone="no"?>
<!-- Created with Inkscape (http://www.inkscape.org/) -->

<svg
   xmlns:dc="http://purl.org/dc/elements/1.1/"
   xmlns:cc="http://creativecommons.org/ns#"
   xmlns:rdf="http://www.w3.org/1999/02/22-rdf-syntax-ns#"
   xmlns:svg="http://www.w3.org/2000/svg"
   xmlns="http://www.w3.org/2000/svg"
   xmlns:sodipodi="http://sodipodi.sourceforge.net/DTD/sodipodi-0.dtd"
   xmlns:inkscape="http://www.inkscape.org/namespaces/inkscape"
   width="100"
   height="100"
   viewBox="0 0 100 100"
   id="svg5225"
   version="1.1"
   inkscape:version="0.91 r13725"
   sodipodi:docname="swat.svg">
  <defs
     id="defs5227" />
  <sodipodi:namedview
     id="base"
     pagecolor="#ffffff"
     bordercolor="#666666"
     borderopacity="1.0"
     inkscape:pageopacity="0.0"
     inkscape:pageshadow="2"
     inkscape:zoom="5.359375"
     inkscape:cx="72.274765"
     inkscape:cy="30.031966"
     inkscape:document-units="px"
     inkscape:current-layer="layer1"
     showgrid="false"
     units="px"
     inkscape:window-width="1986"
     inkscape:window-height="1129"
     inkscape:window-x="54"
     inkscape:window-y="-8"
     inkscape:window-maximized="1" />
  <metadata
     id="metadata5230">
    <rdf:RDF>
      <cc:Work
         rdf:about="">
        <dc:format>image/svg+xml</dc:format>
        <dc:type
           rdf:resource="http://purl.org/dc/dcmitype/StillImage" />
        <dc:title></dc:title>
      </cc:Work>
    </rdf:RDF>
  </metadata>
  <g
     inkscape:label="Layer 1"
     inkscape:groupmode="layer"
     id="layer1"
     transform="translate(0,-952.36216)">
    <circle
       style="fill:#ffffff;fill-opacity:1;fill-rule:nonzero;stroke:#404040;stroke-width:1.69999993;stroke-miterlimit:4;stroke-dasharray:none;stroke-opacity:1"
       id="path5880"
       cx="50.005829"
       cy="1002.1696"
       r="48.699707" />
    <ellipse
       style="fill:#333333;stroke:#000000;stroke-width:0.92117482;stroke-opacity:1"
       id="ellipse5269"
       cx="57.219997"
       cy="1033.5948"
       rx="6.0404644"
       ry="4.2057309" />
    <ellipse
       ry="4.2057309"
       rx="6.0404644"
       cy="1033.5948"
       cx="45.050533"
       id="ellipse5271"
       style="fill:#333333;stroke:#000000;stroke-width:0.92117482;stroke-opacity:1" />
    <path
       inkscape:connector-curvature="0"
       id="path5082"
       d="m 27.206629,1007.2655 c -1.828684,-0.1494 -2.923002,2.81 -2.67536,7.235 l 0.0046,0.043 c 0.312767,5.3894 2.486025,11.1101 4.880563,12.8471 -0.468464,1.1293 -0.225033,2.4255 0.622147,3.3127 l 0,0 c 1.191937,1.2439 3.176638,1.2961 4.433609,0.1166 1.256833,-1.1799 1.309648,-3.145 0.117986,-4.3894 -0.458533,-0.4769 -1.0583,-0.7971 -1.712667,-0.9145 0.373178,-1.2743 0.514779,-2.969 0.407595,-4.878 -0.308969,-5.4381 -2.515544,-11.2157 -4.930585,-12.9099 -0.394369,-0.2766 -0.780132,-0.4319 -1.146858,-0.4618 z"
       style="fill:#ffccaa;stroke:#000000;stroke-width:0.99999982;stroke-miterlimit:4;stroke-dasharray:none;stroke-opacity:1"
       sodipodi:nodetypes="ccccccccccccc" />
    <path
       sodipodi:nodetypes="ccccccccccccc"
       style="fill:#ffccaa;stroke:#000000;stroke-width:0.99999982;stroke-miterlimit:4;stroke-dasharray:none;stroke-opacity:1"
       d="m 74.807185,1007.1844 c 1.828683,-0.1494 2.923002,2.81 2.67536,7.235 l -0.0046,0.043 c -0.312767,5.3895 -2.486026,11.1102 -4.880518,12.8472 0.468418,1.1293 0.224988,2.4255 -0.622147,3.3127 l 0,0 c -1.191937,1.2438 -3.176683,1.296 -4.433608,0.1165 -1.256834,-1.1799 -1.309649,-3.1449 -0.117986,-4.3894 0.458532,-0.4768 1.058253,-0.7971 1.712666,-0.9144 -0.373178,-1.2743 -0.51478,-2.9691 -0.407641,-4.878 0.308969,-5.4382 2.515544,-11.2157 4.930631,-12.91 0.394323,-0.2766 0.780087,-0.4319 1.146812,-0.4616 z"
       id="path5084"
       inkscape:connector-curvature="0" />
    <path
       sodipodi:nodetypes="ccccccccczccccccccccc"
       inkscape:connector-curvature="0"
       id="path4400-7"
       d="m 51.315348,1002.6337 0,0 -20.6384,0.066 c -3.423592,2.0237 -4.762897,4.1492 -5.566324,6.6051 -1.474178,1.9054 -1.380907,12.7087 4.112879,18.3739 l 3.993978,-2.1188 0.392812,-8.2328 c 0.569882,1.0427 -0.727546,1.0459 2.730554,5.9791 0.514368,0.9105 0.473407,1.2404 0.729744,3.3529 0,0 9.227033,2.7535 14.359173,2.7348 5.13214,-0.019 13.602383,-1.9948 14.208831,-2.2305 0.291761,-2.9038 -0.02883,-3.1335 0.457114,-3.9867 0.427503,-2.1711 2.306209,-5.9469 2.906205,-7.2111 -0.457068,2.0146 -0.779675,4.9431 0.204438,9.2291 l 3.184968,1.8348 c 4.861661,-0.089 6.871396,-16.0048 5.528659,-17.7247 -0.803381,-2.4559 -2.142732,-4.5814 -5.56628,-6.6051 l -20.638444,-0.066 0,0 -0.199954,0 z"
       style="fill:#87aade;fill-opacity:1;stroke:#000000;stroke-width:0.87391263;stroke-opacity:1" />
    <path
       sodipodi:nodetypes="ccccccccccccc"
       style="fill:#4d4d4d;fill-opacity:1;stroke:#000000;stroke-width:0.7842235;stroke-opacity:1"
       d="m 36.928029,1024.6477 0.106177,2.7386 0.880452,2.5131 1.430517,1.9973 c 3.63572,0.6831 11.568483,0.8505 11.568483,0.8505 l 0.116338,-4.6255 0.261554,4.6214 c 0,0 9.6052,-0.505 11.4229,-0.8464 l 1.430517,-1.9973 0.955783,-2.5549 0.03066,-2.6968 c -9.320717,2.0515 -19.728613,0.5294 -28.203614,0 z"
       id="path5130"
       inkscape:connector-curvature="0" />
    <path
       sodipodi:nodetypes="ccccczccccccc"
       inkscape:connector-curvature="0"
       id="path5134"
       d="m 50.828349,1002.3853 0,0 -15.260861,-0.7946 c 4.120569,13.1806 1.586077,18.0154 -1.357244,18.4144 0.572078,1.7047 1.986485,4.5693 2.0301,6.5373 0,0 9.570327,2.622 14.702421,2.6033 5.13214,-0.019 15.150701,-2.4432 15.150701,-2.4432 -0.971938,-2.6336 0.897615,-6.4328 1.22013,-7.022 -5.864859,-1.4002 -4.697681,-10.4986 -7.861001,-18.4914 l -8.224294,1.1962 0,0 -0.199999,0 z"
       style="fill:#333333;stroke:#000000;stroke-width:0.87391263;stroke-opacity:1" />
    <path
       sodipodi:nodetypes="cc"
       inkscape:connector-curvature="0"
       id="path5139"
       d="m 50.786062,1020.0734 0.219128,8.9312"
       style="fill:none;fill-rule:evenodd;stroke:#000000;stroke-width:0.69999999;stroke-linecap:butt;stroke-linejoin:miter;stroke-miterlimit:4;stroke-dasharray:none;stroke-opacity:1" />
    <ellipse
       style="fill:#ffccaa;fill-rule:evenodd;stroke:#000000;stroke-width:1px;stroke-linecap:butt;stroke-linejoin:miter;stroke-opacity:1"
       id="ellipse5141"
       cx="50.826851"
       cy="990.71802"
       rx="27.276253"
       ry="29.211882" />
    <rect
       transform="matrix(0.95917829,-0.28280205,0.43696295,-0.89947951,0,0)"
       ry="0"
       y="-1320.197"
       x="655.08679"
       height="2.5584989"
       width="14.714789"
       id="rect5143"
       style="fill:#000000" />
    <path
       d="m -51.5334,1002.9876 a 7.4169068,5.3608065 0 0 1 -9.192449,2.8999 7.4169068,5.3608065 0 0 1 -4.784692,-6.37135"
       sodipodi:end="3.3868309"
       sodipodi:start="0.41672896"
       sodipodi:ry="5.3608065"
       sodipodi:rx="7.4169068"
       sodipodi:cy="1000.8177"
       sodipodi:cx="-58.315552"
       sodipodi:type="arc"
       id="path5145"
       style="fill:#ffffff"
       transform="scale(-1,1)"
       sodipodi:open="true" />
    <path
       sodipodi:open="true"
       style="fill:#ffffff"
       id="path5159"
       sodipodi:type="arc"
       sodipodi:cx="42.461208"
       sodipodi:cy="1000.8177"
       sodipodi:rx="7.4169068"
       sodipodi:ry="5.3608065"
       sodipodi:start="0.41672896"
       sodipodi:end="3.3868309"
       d="m 49.24336,1002.9876 a 7.4169068,5.3608065 0 0 1 -9.192449,2.8999 7.4169068,5.3608065 0 0 1 -4.784692,-6.37135" />
    <path
       inkscape:connector-curvature="0"
       id="path5161"
       d="m 58.912965,1001.4423 a 2.9322859,3.8138939 81.727234 0 1 3.153388,0.5789 2.9322859,3.8138939 81.727234 0 1 1.124707,2.6556 5.3604824,7.4173554 81.744079 0 1 -3.571968,1.2894 5.3604824,7.4173554 81.744079 0 1 -3.516132,-0.092 2.9322859,3.8138939 81.727234 0 1 0.67725,-3.4724 2.9322859,3.8138939 81.727234 0 1 2.132755,-0.9597 z"
       style="fill:#2b0000;fill-opacity:1;stroke:#000000;stroke-width:0.77401078;stroke-miterlimit:4;stroke-dasharray:none;stroke-opacity:1" />
    <path
       style="fill:#2b0000;fill-opacity:1;stroke:#000000;stroke-width:0.77401078;stroke-miterlimit:4;stroke-dasharray:none;stroke-opacity:1"
       d="m 42.349275,1001.5133 a 3.8136627,2.9324637 0 0 1 3.039202,1.0229 3.8136627,2.9324637 0 0 1 0.736517,2.7891 7.4169065,5.3608068 0 0 1 -3.718512,0.7666 7.4169065,5.3608068 0 0 1 -3.4673,-0.5927 3.8136627,2.9324637 0 0 1 1.162922,-3.3405 3.8136627,2.9324637 0 0 1 2.247171,-0.6454 z"
       id="path5163"
       inkscape:connector-curvature="0" />
    <path
       sodipodi:nodetypes="ccccc"
       style="fill:#1a1a1a;stroke:#000000;stroke-width:1;stroke-miterlimit:4;stroke-dasharray:none;stroke-opacity:1"
       d="m 65.550404,1024.8461 0.310662,-1.2074 c -9.829913,1.7889 -20.715791,1.7199 -30.314904,-0.184 l 0.427868,1.1211 c 9.576002,1.9751 19.301887,2.4716 29.576374,0.2703 z"
       id="path5220"
       inkscape:connector-curvature="0" />
    <rect
       transform="matrix(-0.95917829,-0.28280205,-0.43696295,-0.89947951,0,0)"
       ry="0"
       y="-1281.3557"
       x="531.99127"
       height="2.5584989"
       width="14.714789"
       id="rect5265"
       style="fill:#000000" />
    <path
       inkscape:connector-curvature="0"
       id="path5267"
       d="m 50.991918,1020.0064 c 19.208203,0.2809 26.995338,-16.1107 26.933142,-29.38746 -0.0622,-13.27676 -8.933764,-28.6962 -27.090212,-29.00703 -18.156494,-0.31082 -27.674372,16.35672 -27.524716,29.76878 0.149702,13.41201 8.473537,28.34491 27.681786,28.62571 z M 39.886454,1008.823 c -8.568091,-0.9122 -11.718871,-19.92905 -3.282542,-14.94033 16.955084,4.61538 13.550667,2.10833 27.228105,-0.0616 9.910781,-5.22205 6.078953,14.25613 -0.990748,14.74713 -10.822721,-1.6332 -13.273369,-1.7476 -22.954815,0.2548 z"
       style="fill:#333333;fill-opacity:1;stroke:#000000;stroke-width:1.57104301;stroke-miterlimit:4;stroke-dasharray:none;stroke-opacity:1"
       sodipodi:nodetypes="zzzzzccccc" />
    <path
       inkscape:connector-curvature="0"
       id="path5290"
       d="m 26.004074,1023.0654 c 2.61989,-0.5002 4.724865,-0.3694 7.287548,0.1058 l 0.284667,-3.8041 c -3.080713,0.7272 -6.033324,-0.4722 -8.963236,-2.0133 -0.04165,2.1013 -0.700178,3.5236 1.391021,5.7116 z"
       style="fill:#1a1a1a;stroke:#000000;stroke-width:0.4893969;stroke-miterlimit:4;stroke-dasharray:none;stroke-opacity:1"
       sodipodi:nodetypes="ccccc" />
    <path
       sodipodi:nodetypes="ccccc"
       style="fill:#1a1a1a;stroke:#000000;stroke-width:0.4893969;stroke-miterlimit:4;stroke-dasharray:none;stroke-opacity:1"
       d="m 76.287038,1022.3768 c -2.619891,-0.5002 -4.724912,-0.3693 -7.287596,0.106 l -0.28462,-3.8043 c 3.080666,0.7273 6.033324,-0.4721 8.963236,-2.0131 0.04165,2.1011 0.700133,3.5235 -1.39102,5.7114 z"
       id="path5292"
       inkscape:connector-curvature="0" />
    <path
       style="fill:#000000;fill-opacity:1;stroke:#000000;stroke-width:1.07946992;stroke-miterlimit:4;stroke-dasharray:none;stroke-opacity:1"
       d="m 69.733534,1025.5924 a 2.7785827,2.8969734 54.689496 0 1 1.819943,0.6464 2.7785827,2.8969734 54.689496 0 1 0.25295,3.934 2.7785827,2.8969734 54.689496 0 1 -2.303509,1.0534 l -2.709319,-2.5829 a 2.7785827,2.8969734 54.689496 0 1 0.754412,-2.061 2.7785827,2.8969734 54.689496 0 1 2.185523,-0.9899 z m -0.741002,0.9351 -0.994913,1.2793 2.871148,2.2459 0.994867,-1.2803 -2.871102,-2.2449 z"
       id="path5294"
       inkscape:connector-curvature="0" />
    <path
       inkscape:connector-curvature="0"
       id="path5296"
       d="m 32.320187,1025.6736 a 2.8969734,2.7785827 35.310504 0 0 -1.819897,0.6464 2.8969734,2.7785827 35.310504 0 0 -0.252996,3.934 2.8969734,2.7785827 35.310504 0 0 2.303509,1.0534 l 2.709319,-2.5829 a 2.8969734,2.7785827 35.310504 0 0 -0.754412,-2.0612 2.8969734,2.7785827 35.310504 0 0 -2.185523,-0.9897 z m 0.741048,0.9351 0.994868,1.2793 -2.871148,2.2459 -0.994868,-1.2804 2.871148,-2.2448 z"
       style="fill:#000000;fill-opacity:1;stroke:#000000;stroke-width:1.07946992;stroke-miterlimit:4;stroke-dasharray:none;stroke-opacity:1" />
    <g
       id="g6081"
       transform="matrix(0.37988897,0.32047191,-0.31015759,0.3925222,42.829821,375.97097)"
       style="fill:#1a1a1a">
      <rect
         y="1001.9282"
         x="822.31256"
         height="2.4033151"
         width="2.8452566"
         id="rect6065"
         style="fill:#1a1a1a;fill-opacity:1;stroke:#000000;stroke-width:0.86132807;stroke-miterlimit:4;stroke-dasharray:none;stroke-opacity:1" />
      <rect
         y="1001.2225"
         x="825.23077"
         height="3.9915941"
         width="13.537536"
         id="rect6067"
         style="fill:#1a1a1a;fill-opacity:1;stroke:#000000;stroke-width:0.86724353;stroke-miterlimit:4;stroke-dasharray:none;stroke-opacity:1" />
      <path
         sodipodi:nodetypes="ccccccc"
         inkscape:connector-curvature="0"
         id="path5445"
         d="m 795.59525,1001.345 c 1.23602,0.8764 17.5221,0.1372 26.28312,0.2063 l 0.134,5.643 -16.29513,0.1755 c -1.82799,3.0299 -2.17816,1.1239 -2.17816,1.1239 -3.01406,-3.4007 -2.47857,-4.0447 -7.26185,-3.2761 -0.0794,1.3084 -1.00746,-2.6029 -0.68198,-3.8726 z"
         style="fill:#1a1a1a;fill-rule:evenodd;stroke:#000000;stroke-width:2.18178082px;stroke-linecap:butt;stroke-linejoin:miter;stroke-opacity:1" />
    </g>
  </g>
</svg>
