<?xml version="1.0" encoding="UTF-8" standalone="no"?>
<!-- Created with Inkscape (http://www.inkscape.org/) -->

<svg
   xmlns:dc="http://purl.org/dc/elements/1.1/"
   xmlns:cc="http://creativecommons.org/ns#"
   xmlns:rdf="http://www.w3.org/1999/02/22-rdf-syntax-ns#"
   xmlns:svg="http://www.w3.org/2000/svg"
   xmlns="http://www.w3.org/2000/svg"
   xmlns:sodipodi="http://sodipodi.sourceforge.net/DTD/sodipodi-0.dtd"
   xmlns:inkscape="http://www.inkscape.org/namespaces/inkscape"
   width="200"
   height="200"
   viewBox="0 0 200 200"
   id="svg2"
   version="1.1"
   inkscape:version="0.91 r13725"
   sodipodi:docname="owl.svg">
  <defs
     id="defs4" />
  <sodipodi:namedview
     id="base"
     pagecolor="#ffffff"
     bordercolor="#666666"
     borderopacity="1.0"
     inkscape:pageopacity="0.0"
     inkscape:pageshadow="2"
     inkscape:zoom="2.8"
     inkscape:cx="-22.496825"
     inkscape:cy="66.543264"
     inkscape:document-units="px"
     inkscape:current-layer="layer1"
     showgrid="false"
     units="px"
     inkscape:window-width="1920"
     inkscape:window-height="1017"
     inkscape:window-x="-8"
     inkscape:window-y="-8"
     inkscape:window-maximized="1" />
  <metadata
     id="metadata7">
    <rdf:RDF>
      <cc:Work
         rdf:about="">
        <dc:format>image/svg+xml</dc:format>
        <dc:type
           rdf:resource="http://purl.org/dc/dcmitype/StillImage" />
        <dc:title></dc:title>
      </cc:Work>
    </rdf:RDF>
  </metadata>
  <g
     inkscape:label="Layer 1"
     inkscape:groupmode="layer"
     id="layer1"
     transform="translate(0,-852.36216)">
    <path
       style="fill:none;fill-rule:evenodd;stroke:#000000;stroke-width:2;stroke-linecap:butt;stroke-linejoin:miter;stroke-opacity:1;stroke-miterlimit:4;stroke-dasharray:none"
       d="m 50.357143,928.43359 c 0.551392,-19.55829 11.633141,-10.50972 17.142857,-5 -5.161926,2.58096 -11.111702,4.97606 -17.142857,5 z"
       id="path4161"
       inkscape:connector-curvature="0" />
    <path
       style="fill:none;fill-rule:evenodd;stroke:#000000;stroke-width:2;stroke-linecap:butt;stroke-linejoin:miter;stroke-opacity:1;stroke-miterlimit:4;stroke-dasharray:none"
       d="m 108.57143,927.7193 c 3.23253,-13.6905 13.51109,-23.63176 23.57143,-13.57143 5.87182,18.24692 -9.89141,16.30746 -23.57143,13.57143 z"
       id="path4173"
       inkscape:connector-curvature="0" />
    <ellipse
       style="color:#000000;clip-rule:nonzero;display:inline;overflow:visible;visibility:visible;opacity:1;isolation:auto;mix-blend-mode:normal;color-interpolation:sRGB;color-interpolation-filters:linearRGB;solid-color:#000000;solid-opacity:1;fill:#000000;fill-opacity:1;fill-rule:evenodd;stroke:#000000;stroke-width:2.17035519;stroke-linecap:round;stroke-linejoin:round;stroke-miterlimit:4;stroke-dasharray:none;stroke-dashoffset:0;stroke-opacity:1;color-rendering:auto;image-rendering:auto;shape-rendering:auto;text-rendering:auto;enable-background:accumulate"
       id="path4179"
       cx="-112.53687"
       cy="926.08337"
       rx="3.600296"
       ry="4.4917417"
       transform="matrix(0.97650592,-0.21549056,0.24809754,0.96873506,0,0)" />
    <g
       id="g4270">
      <g
         style="stroke-width:2;stroke-miterlimit:4;stroke-dasharray:none"
         id="g4267">
        <path
           style="fill:none;fill-rule:evenodd;stroke:#000000;stroke-width:2;stroke-linecap:butt;stroke-linejoin:miter;stroke-opacity:1;stroke-miterlimit:4;stroke-dasharray:none"
           d="m 87.723576,938.07791 c 0.270629,-1.6277 2.350152,-0.0604 4.528437,-0.29643 2.178286,-0.23602 4.455335,-2.27534 5.121019,0.31233 0.103055,0.4006 -2.010761,28.59393 -2.281373,28.49797 -2.083166,-0.73877 -7.573053,-23.21511 -7.368083,-28.51384 z"
           id="path4167"
           inkscape:connector-curvature="0"
           sodipodi:nodetypes="cssscc" />
      </g>
      <path
         sodipodi:nodetypes="cc"
         inkscape:connector-curvature="0"
         id="path4169"
         d="m 88.660714,942.80859 c 2.999297,-0.79174 1.030464,2.63025 0.446429,3.21429"
         style="fill:none;fill-rule:evenodd;stroke:#000000;stroke-width:2;stroke-linecap:butt;stroke-linejoin:miter;stroke-opacity:1;stroke-miterlimit:4;stroke-dasharray:none" />
      <path
         sodipodi:nodetypes="cc"
         inkscape:connector-curvature="0"
         id="path4169-7"
         d="m 96.980088,942.22794 c -2.999297,-0.79174 -1.030464,2.63025 -0.446429,3.21429"
         style="fill:none;fill-rule:evenodd;stroke:#000000;stroke-width:2;stroke-linecap:butt;stroke-linejoin:miter;stroke-opacity:1;stroke-miterlimit:4;stroke-dasharray:none" />
    </g>
    <g
       id="g4232"
       transform="matrix(0.88729644,0,0,1.0052031,5.8080658,-4.4307348)"
       style="stroke-width:2.11772084;stroke-miterlimit:4;stroke-dasharray:none">
      <path
         sodipodi:nodetypes="cc"
         inkscape:connector-curvature="0"
         id="path4165"
         d="m 57.500001,927.36216 c 0.697855,-6.22654 6.212177,-7.03993 8.035713,-3.39286"
         style="fill:none;fill-rule:evenodd;stroke:#000000;stroke-width:2.11772084;stroke-linecap:butt;stroke-linejoin:miter;stroke-miterlimit:4;stroke-dasharray:none;stroke-opacity:1" />
      <path
         inkscape:connector-curvature="0"
         id="path4200"
         d="m 57.678572,927.0943 0.267857,-1.96428 0.803571,-1.69643 1.517857,-0.89286 1.160715,-0.71428 1.607142,0.0893 1.607143,0.71428 1.160715,0.98214 0.178571,0.71429 -1.785714,0.89286 -2.946429,1.07143 -1.875,0.80357 z"
         style="fill:#000000;fill-opacity:1;fill-rule:evenodd;stroke:none;stroke-width:2.11772084;stroke-linecap:butt;stroke-linejoin:miter;stroke-miterlimit:4;stroke-dasharray:none;stroke-opacity:1" />
    </g>
    <path
       style="fill:none;fill-rule:evenodd;stroke:#000000;stroke-width:2;stroke-linecap:butt;stroke-linejoin:miter;stroke-opacity:1;stroke-miterlimit:4;stroke-dasharray:none"
       d="m 100.25765,1003.1172 c 3.09878,6.9863 10.35406,3.7841 10.35406,-3.28297"
       id="path4220"
       inkscape:connector-curvature="0" />
    <g
       id="g4255"
       style="stroke-width:2;stroke-miterlimit:4;stroke-dasharray:none">
      <path
         sodipodi:nodetypes="csccc"
         inkscape:connector-curvature="0"
         id="path4202"
         d="m 165.66502,952.86213 c 4.08647,3.4928 1.76175,12.87343 5.55584,16.66752 7.25848,7.25849 18.24073,17.15388 13.88959,28.03173 2.01984,3.68502 3.87404,12.54232 -0.50507,13.63702 2.93582,10.914 -2.2317,18.9325 -3.96139,28.5473"
         style="fill:none;fill-rule:evenodd;stroke:#000000;stroke-width:2;stroke-linecap:butt;stroke-linejoin:miter;stroke-opacity:1;stroke-miterlimit:4;stroke-dasharray:none" />
      <path
         sodipodi:nodetypes="csc"
         inkscape:connector-curvature="0"
         id="path4204"
         d="m 139.40105,988.97509 c 1.48844,23.07831 2.69546,28.57521 23.99112,40.40611 4.14355,2.302 12.62353,9.9029 17.25182,9.9029"
         style="fill:none;fill-rule:evenodd;stroke:#000000;stroke-width:2;stroke-linecap:butt;stroke-linejoin:miter;stroke-opacity:1;stroke-miterlimit:4;stroke-dasharray:none" />
      <path
         inkscape:connector-curvature="0"
         id="path4206"
         d="m 31.314729,986.19717 c -2.536867,9.30099 2.257645,19.13213 4.293148,27.27413 -1.383202,4.887 -2.272843,9.3659 -2.272843,14.8997"
         style="fill:none;fill-rule:evenodd;stroke:#000000;stroke-width:2;stroke-linecap:butt;stroke-linejoin:miter;stroke-opacity:1;stroke-miterlimit:4;stroke-dasharray:none" />
      <path
         inkscape:connector-curvature="0"
         id="path4208"
         d="m 38.133259,997.05631 c -0.367816,10.99259 12.276977,14.78419 15.404826,2.27284"
         style="fill:none;fill-rule:evenodd;stroke:#000000;stroke-width:2;stroke-linecap:butt;stroke-linejoin:miter;stroke-opacity:1;stroke-miterlimit:4;stroke-dasharray:none" />
      <path
         inkscape:connector-curvature="0"
         id="path4212"
         d="m 61.11423,1017.2593 c 3.212594,8.5674 10.606601,6.6287 10.606601,-2.2728"
         style="fill:none;fill-rule:evenodd;stroke:#000000;stroke-width:2;stroke-linecap:butt;stroke-linejoin:miter;stroke-opacity:1;stroke-miterlimit:4;stroke-dasharray:none" />
      <path
         inkscape:connector-curvature="0"
         id="path4214"
         d="m 76.519056,993.52081 c -0.581765,9.14479 11.364216,13.63959 11.364216,0.505"
         style="fill:none;fill-rule:evenodd;stroke:#000000;stroke-width:2;stroke-linecap:butt;stroke-linejoin:miter;stroke-opacity:1;stroke-miterlimit:4;stroke-dasharray:none" />
      <path
         inkscape:connector-curvature="0"
         id="path4216"
         d="m 111.87439,979.8837 c 1.07443,8.1809 11.36422,10.1159 11.36422,0"
         style="fill:none;fill-rule:evenodd;stroke:#000000;stroke-width:2;stroke-linecap:butt;stroke-linejoin:miter;stroke-opacity:1;stroke-miterlimit:4;stroke-dasharray:none" />
      <path
         inkscape:connector-curvature="0"
         id="path4218"
         d="m 86.873116,1019.7848 c 4.98906,6.5627 11.11239,7.064 12.12183,-3.0305"
         style="fill:none;fill-rule:evenodd;stroke:#000000;stroke-width:2;stroke-linecap:butt;stroke-linejoin:miter;stroke-opacity:1;stroke-miterlimit:4;stroke-dasharray:none" />
      <path
         inkscape:connector-curvature="0"
         id="path4224"
         d="m 123.74369,1015.2391 c 5.29225,7.1264 8.08122,-0.9936 8.08122,-7.0711"
         style="fill:none;fill-rule:evenodd;stroke:#000000;stroke-width:2;stroke-linecap:butt;stroke-linejoin:miter;stroke-opacity:1;stroke-miterlimit:4;stroke-dasharray:none" />
      <path
         inkscape:connector-curvature="0"
         id="path4226"
         d="m 128.03684,996.04616 c 6.47099,5.03414 7.82868,-1.48199 7.82868,-8.08122"
         style="fill:none;fill-rule:evenodd;stroke:#000000;stroke-width:2;stroke-linecap:butt;stroke-linejoin:miter;stroke-opacity:1;stroke-miterlimit:4;stroke-dasharray:none" />
    </g>
    <g
       id="g4250"
       style="stroke-width:2;stroke-miterlimit:4;stroke-dasharray:none">
      <path
         inkscape:connector-curvature="0"
         id="path4244"
         d="m 112.5,891.11216 c -12.781678,-1.05729 -30.630643,-2.45254 -41.25,2.85714 -2.974002,-3.63529 -2.803919,-7.04669 -1.428571,-10.71428 -5.63512,-0.55802 -10.316364,2.30104 -14.285715,4.28571 -12.012217,8.52244 -21.756921,23.85179 -27.142857,38.21429 -4.937004,20.84959 -7.727965,42.72606 2.857143,61.25"
         style="fill:none;fill-rule:evenodd;stroke:#000000;stroke-width:2;stroke-linecap:butt;stroke-linejoin:miter;stroke-opacity:1;stroke-miterlimit:4;stroke-dasharray:none" />
      <path
         inkscape:connector-curvature="0"
         id="path4246"
         d="m 111.77302,891.29073 c 3.41679,-2.95776 4.55189,-9.22215 3.94127,-14.10714 16.07945,3.83879 35.40471,27.27075 44.10714,42.5 4.93308,9.99277 4.12056,21.89306 5.53571,33.21428"
         style="fill:none;fill-rule:evenodd;stroke:#000000;stroke-width:2;stroke-linecap:butt;stroke-linejoin:miter;stroke-miterlimit:4;stroke-dasharray:none;stroke-opacity:1"
         sodipodi:nodetypes="cccc" />
      <path
         inkscape:connector-curvature="0"
         id="path4248"
         d="m 31.25,986.82645 c 4.298441,1.28229 12.041243,1.22434 15.714286,0 7.881351,-2.62712 11.522658,-6.81708 19.464286,-9.46429 0.773651,-0.25788 1.8447,1.77097 3.214285,1.42857 4.27235,-1.06809 6.158922,-3.84108 9.642857,-0.35714 1.524912,1.52491 5.877064,-2.5 7.321429,-2.5 7.789849,0 13.504187,1.39146 21.428567,-1.25 11.31242,-3.77081 20.58042,-17.15776 30.17858,-20.35714 1.02569,-0.3419 0.55649,1.65973 1.78571,1.25 2.65802,-0.88601 4.11997,-2.36928 6.07143,-2.85715 1.60048,-0.40012 3.99751,-3.44767 5.89286,-2.5 5.01642,2.50821 8.65757,3.56145 13.39285,1.78572"
         style="fill:none;fill-rule:evenodd;stroke:#000000;stroke-width:2;stroke-linecap:butt;stroke-linejoin:miter;stroke-opacity:1;stroke-miterlimit:4;stroke-dasharray:none" />
    </g>
  </g>
</svg>
